# xmcd
#
# Track frame offsets:
#  150
#  11082
#  18718
#  33422
#  49642
#  58513
#  71767
#  86288
#  104504
#  114220
#  126238
#  149017
#
# Disc length: 2170 seconds
#
# Revision: 0
# Processed by: cddbd v1.5.1PL2 Copyright (c) Steve Scherf et al.
# Submitted via: Collectorz.com_Music_Collector 6.9
#
DISCID=a508780c
DTITLE=Fungus - Fungus
DYEAR=1974
DGENRE=Folk
TTITLE0=Kaap'ren varen
TTITLE1=Madlot/Schoenmaker
TTITLE2=De ruiter
TTITLE3=Rijke boer
TTITLE4=Langbonken/Mieghimmels
TTITLE5=Garrenkwak
TTITLE6=Farewell to Tarwathie
TTITLE7=Irish girl
TTITLE8=Two brethren
TTITLE9=Farewell to whiskey
TTITLE10=The poor ditching boy
TTITLE11=Ye marines all
EXTD=
EXTT0=
EXTT1=
EXTT2=
EXTT3=
EXTT4=
EXTT5=
EXTT6=
EXTT7=
EXTT8=
EXTT9=
EXTT10=
EXTT11=
PLAYORDER=
